<?xml version="1.0" standalone="no"?>
<!DOCTYPE svg PUBLIC "-//W3C//DTD SVG 20010904//EN"
 "http://www.w3.org/TR/2001/REC-SVG-20010904/DTD/svg10.dtd">
<svg version="1.0" xmlns="http://www.w3.org/2000/svg"
 width="2048.000000pt" height="2048.000000pt" viewBox="0 0 2048.000000 2048.000000"
 preserveAspectRatio="xMidYMid meet">

<g transform="translate(0.000000,2048.000000) scale(0.100000,-0.100000)"
fill="#000000" stroke="none">
<path d="M3155 20310 c-3 -5 -46 -10 -95 -10 -49 0 -92 -4 -95 -10 -3 -5 -35
-10 -70 -10 -35 0 -67 -4 -70 -10 -3 -5 -30 -10 -60 -10 -30 0 -57 -4 -60 -10
-3 -5 -23 -10 -43 -10 -20 0 -46 -7 -56 -15 -11 -8 -31 -15 -45 -15 -22 0 -60
-10 -116 -30 -53 -19 -93 -30 -112 -30 -11 0 -26 -7 -33 -15 -7 -8 -21 -15
-31 -15 -10 0 -21 -4 -24 -10 -3 -5 -19 -10 -36 -10 -16 0 -29 -4 -29 -10 0
-5 -7 -10 -15 -10 -8 0 -23 -4 -33 -9 -48 -26 -171 -81 -180 -81 -6 0 -12 -3
-14 -7 -1 -5 -19 -15 -38 -24 -19 -9 -55 -26 -78 -38 -24 -11 -50 -21 -56 -21
-7 0 -21 -9 -31 -20 -10 -11 -23 -20 -28 -20 -6 0 -24 -10 -41 -23 -17 -13
-51 -33 -76 -44 -25 -12 -56 -33 -69 -47 -14 -14 -30 -26 -38 -26 -7 0 -27
-12 -44 -27 -17 -15 -41 -32 -54 -38 -13 -5 -62 -47 -110 -92 -47 -46 -92 -83
-100 -83 -16 0 -145 -120 -145 -136 0 -6 -38 -46 -85 -89 -47 -43 -85 -85 -85
-93 0 -8 -12 -23 -26 -34 -23 -18 -58 -65 -90 -120 -6 -10 -21 -29 -33 -42
-11 -12 -21 -28 -21 -34 0 -7 -4 -12 -10 -12 -5 0 -24 -24 -42 -53 -18 -29
-39 -62 -46 -73 -6 -10 -15 -26 -19 -34 -4 -8 -10 -17 -13 -20 -4 -3 -26 -43
-49 -90 -24 -47 -56 -107 -71 -135 -54 -95 -60 -108 -60 -132 0 -12 -4 -23
-10 -23 -5 0 -10 -9 -10 -19 0 -11 -4 -23 -10 -26 -5 -3 -10 -16 -10 -28 0
-12 -7 -31 -15 -41 -8 -11 -15 -30 -15 -43 0 -13 -4 -23 -10 -23 -5 0 -10 -10
-10 -22 0 -13 -7 -32 -15 -42 -8 -11 -15 -34 -15 -52 0 -18 -5 -36 -10 -39 -6
-3 -10 -24 -10 -45 0 -21 -4 -42 -10 -45 -5 -3 -10 -25 -10 -49 0 -23 -7 -51
-15 -62 -8 -10 -15 -38 -15 -61 0 -23 -4 -45 -10 -48 -5 -3 -10 -46 -10 -94 0
-61 -4 -93 -15 -107 -13 -17 -14 -910 -14 -7274 0 -6364 1 -7257 14 -7274 10
-13 15 -44 15 -92 0 -40 5 -76 10 -79 6 -3 10 -32 10 -64 0 -40 5 -63 15 -71
10 -8 15 -30 15 -61 0 -26 4 -51 10 -54 5 -3 10 -24 10 -46 0 -21 5 -39 10
-39 6 0 10 -11 10 -24 0 -13 8 -39 17 -58 31 -62 33 -68 33 -92 0 -13 11 -44
25 -67 14 -24 25 -54 25 -66 0 -12 5 -25 10 -28 6 -3 10 -15 10 -26 0 -10 5
-19 10 -19 6 0 10 -9 10 -20 0 -11 18 -52 40 -91 22 -39 40 -75 40 -80 0 -5 5
-9 10 -9 6 0 10 -8 11 -17 0 -10 9 -31 20 -48 10 -16 23 -39 28 -50 5 -12 16
-27 25 -35 10 -7 25 -32 36 -54 10 -23 28 -50 39 -60 12 -11 21 -24 21 -31 0
-6 11 -22 25 -35 14 -13 25 -29 25 -37 0 -7 4 -13 8 -13 5 0 18 -18 31 -40 12
-21 35 -49 51 -60 17 -12 30 -27 30 -35 0 -7 20 -32 45 -56 25 -24 47 -51 50
-60 7 -22 339 -329 356 -329 7 0 38 -25 70 -55 32 -30 64 -55 71 -55 8 0 29
-16 48 -35 19 -19 41 -35 50 -35 9 0 25 -9 35 -20 10 -11 24 -20 31 -20 7 0
25 -10 41 -23 15 -13 49 -33 74 -44 25 -12 51 -28 58 -37 8 -9 22 -16 32 -16
11 0 19 -4 19 -10 0 -5 7 -10 15 -10 8 0 23 -4 33 -9 50 -27 171 -81 181 -81
6 0 11 -4 11 -10 0 -5 6 -10 13 -10 6 0 35 -12 62 -25 28 -14 56 -25 63 -25 7
0 21 -4 32 -10 11 -5 29 -14 40 -20 11 -5 31 -10 44 -10 14 0 28 -4 31 -10 3
-5 19 -10 35 -10 16 0 32 -4 35 -10 3 -5 17 -10 30 -10 13 0 36 -6 52 -14 41
-20 96 -36 126 -36 14 0 29 -4 32 -10 3 -5 23 -10 43 -10 20 0 46 -7 56 -15
13 -10 43 -15 82 -15 35 0 66 -4 69 -10 3 -5 39 -10 80 -10 41 0 77 -5 80 -10
9 -14 14271 -14 14280 0 3 5 39 10 80 10 41 0 77 5 80 10 3 5 30 10 58 10 30
0 60 7 71 15 11 8 41 15 67 15 26 0 50 4 53 9 3 5 23 11 43 15 92 13 113 19
124 32 6 8 24 14 40 14 15 0 31 4 34 10 3 5 19 10 35 10 16 0 32 4 35 10 3 6
19 10 35 10 16 0 32 5 35 10 3 6 15 10 26 10 10 0 19 5 19 10 0 6 11 10 24 10
22 0 79 25 240 106 37 19 74 34 82 34 8 0 14 5 14 10 0 6 9 10 19 10 11 0 23
5 26 10 3 6 14 10 23 10 9 0 27 11 41 23 15 13 42 30 61 37 19 8 52 29 73 47
20 18 43 33 50 33 8 0 22 9 32 20 10 11 26 20 35 20 10 0 23 7 31 16 7 8 26
22 42 31 16 8 53 37 81 64 28 27 57 49 64 49 12 0 56 37 151 130 20 19 69 64
109 100 39 36 72 69 72 74 0 5 28 40 63 77 98 106 127 141 127 155 0 7 11 21
25 32 14 11 25 24 25 29 0 5 11 20 25 33 14 13 25 32 25 41 0 10 8 23 18 28
10 5 28 29 40 54 12 25 29 50 37 57 7 6 29 42 47 78 18 37 36 69 41 70 4 2 7
8 7 13 0 5 11 27 25 49 14 22 25 50 26 62 0 13 9 37 19 53 33 53 50 88 50 104
0 9 7 25 15 35 8 11 15 30 15 43 0 13 5 23 10 23 6 0 10 13 10 29 0 17 5 33
10 36 6 3 10 16 10 28 0 12 7 31 15 41 8 11 15 35 15 53 0 18 5 33 10 33 6 0
10 17 10 38 0 20 7 46 15 56 8 11 15 35 15 53 0 18 5 33 10 33 6 0 10 28 10
64 0 36 5 68 10 71 6 3 10 48 10 99 0 71 4 97 15 106 13 11 15 828 15 7239 0
6339 -2 7230 -15 7247 -10 13 -14 46 -15 111 0 50 -4 95 -10 98 -5 3 -10 33
-10 65 0 32 -4 62 -10 65 -5 3 -10 25 -10 49 0 23 -7 51 -15 62 -8 10 -15 31
-15 47 0 27 -2 33 -33 95 -9 19 -17 49 -17 68 0 19 -4 34 -10 34 -5 0 -10 11
-10 25 0 13 -11 44 -25 69 -14 25 -25 54 -25 65 0 12 -4 21 -10 21 -5 0 -10 8
-10 19 0 17 -54 129 -99 206 -49 83 -71 127 -71 140 0 8 -4 15 -10 15 -5 0
-10 6 -10 13 0 8 -10 23 -23 35 -12 11 -35 46 -51 77 -16 30 -33 55 -38 55 -4
0 -8 5 -8 11 0 6 -12 26 -27 45 -52 62 -73 92 -73 102 0 6 -19 26 -41 46 -23
19 -51 50 -63 69 -12 18 -45 55 -75 83 -80 73 -94 87 -114 117 -10 16 -29 32
-43 37 -13 5 -24 16 -24 23 0 17 -32 47 -50 47 -7 0 -44 29 -81 65 -37 36 -73
65 -81 65 -8 0 -29 16 -48 35 -19 19 -40 35 -48 35 -8 0 -32 16 -53 35 -22 19
-45 35 -52 35 -7 0 -28 16 -47 35 -19 19 -39 35 -46 35 -17 0 -94 42 -94 52 0
4 -7 8 -15 8 -8 0 -23 4 -33 9 -67 37 -309 151 -319 151 -7 0 -13 5 -13 10 0
6 -9 10 -19 10 -11 0 -23 5 -26 10 -3 6 -17 10 -31 10 -24 0 -31 2 -91 34 -17
9 -40 16 -51 16 -12 0 -24 5 -27 10 -3 6 -17 10 -31 10 -13 0 -32 4 -42 9 -32
16 -88 31 -119 31 -17 0 -36 7 -43 15 -7 9 -29 15 -51 15 -21 0 -41 5 -44 10
-3 6 -30 10 -60 10 -30 0 -57 5 -60 10 -3 5 -37 10 -76 10 -39 0 -69 4 -69 10
0 6 -41 10 -104 10 -59 0 -108 4 -111 10 -4 7 -2360 10 -7035 10 -4675 0
-7031 -3 -7035 -10z m2103 -5136 l2 -572 -362 -5 c-272 -3 -383 -8 -443 -20
-338 -66 -476 -219 -492 -547 -10 -201 7 -417 107 -1349 68 -639 81 -822 83
-1116 1 -269 -8 -345 -59 -508 -98 -314 -336 -583 -640 -723 -117 -54 -357
-131 -487 -156 -64 -13 -117 -26 -117 -30 0 -3 26 -12 58 -18 394 -76 664
-198 871 -396 134 -127 222 -258 287 -427 125 -321 123 -620 -17 -1897 -78
-721 -95 -942 -85 -1141 9 -193 43 -286 140 -387 62 -65 110 -93 218 -131 131
-47 197 -54 578 -60 l355 -6 0 -573 0 -573 -548 1 c-301 0 -594 5 -650 11
-444 44 -813 171 -1121 385 -283 197 -472 462 -551 774 -50 198 -58 289 -52
605 7 358 16 457 97 1115 92 746 109 917 116 1180 8 260 -4 338 -72 477 -77
156 -216 284 -402 369 -156 71 -345 119 -582 149 -68 8 -130 15 -137 15 -11 0
-13 101 -11 523 l3 522 100 7 c144 11 359 53 472 92 188 64 319 142 434 258
56 57 80 92 119 172 62 128 80 215 80 388 0 223 -20 462 -80 953 -16 132 -43
350 -59 485 -62 510 -81 757 -81 1072 0 136 5 244 15 311 65 433 268 748 631
982 197 127 437 228 666 280 332 75 434 83 1073 81 l540 -1 3 -571z m11107
561 c354 -34 630 -106 880 -229 507 -248 772 -595 850 -1114 25 -167 18 -553
-16 -897 -13 -135 -69 -618 -109 -935 -97 -782 -105 -1114 -31 -1306 126 -325
491 -529 1031 -578 l125 -11 3 -523 c1 -287 -1 -522 -5 -522 -5 0 -66 -7 -137
-15 -478 -56 -792 -203 -949 -444 -101 -153 -123 -262 -114 -564 7 -251 22
-417 82 -907 118 -967 125 -1037 132 -1380 5 -222 3 -285 -12 -390 -25 -176
-66 -315 -134 -455 -117 -239 -272 -408 -525 -574 -183 -119 -448 -227 -691
-281 -282 -63 -288 -63 -947 -67 l-608 -4 0 575 0 576 286 0 c370 0 498 11
632 56 200 66 290 154 348 339 16 52 19 92 18 295 0 260 -1 264 -84 1020 -95
861 -102 957 -103 1300 -2 362 22 487 133 715 127 259 345 456 641 578 151 62
344 118 455 133 49 6 84 19 74 26 -3 2 -57 14 -120 26 -136 27 -384 107 -490
157 -368 176 -594 471 -677 881 -15 75 -17 134 -15 369 2 322 23 590 101 1295
73 660 81 751 88 995 5 204 4 226 -16 305 -48 190 -139 292 -320 358 -125 45
-211 54 -593 59 l-358 5 0 574 0 574 513 0 c376 0 552 -4 662 -15z m-8538
-1285 c16 -49 147 -427 298 -865 52 -151 137 -398 189 -547 189 -546 637
-1844 996 -2883 504 -1457 614 -1778 761 -2202 84 -244 155 -443 158 -443 3 0
22 51 42 113 20 61 301 877 623 1812 979 2834 1676 4854 1713 4963 l35 102
894 0 c594 0 894 -3 894 -10 0 -6 -81 -230 -179 -498 -99 -268 -260 -707 -359
-977 -99 -269 -262 -713 -362 -985 -100 -272 -263 -715 -362 -985 -99 -269
-261 -710 -360 -980 -99 -269 -261 -710 -360 -980 -99 -269 -195 -530 -213
-580 -19 -49 -100 -270 -180 -490 -81 -220 -162 -440 -180 -490 -19 -49 -100
-270 -180 -490 -81 -220 -166 -452 -189 -515 -24 -63 -94 -256 -157 -427
l-114 -313 -1015 0 -1016 0 -66 183 c-36 100 -605 1654 -1263 3452 -658 1799
-1345 3675 -1526 4169 -181 495 -329 903 -329 908 0 4 403 7 896 6 l896 -3 15
-45z"/>
</g>
</svg>
